<svg width="500" height="182" viewBox="0 0 500 182" fill="none" xmlns="http://www.w3.org/2000/svg">
<g clip-path="url(#clip0_917_460)">
<path d="M50.8273 39.3453C52.9318 39.3453 54.625 37.6388 54.625 35.553C54.625 33.4672 52.916 31.7449 50.8273 31.7449C48.7385 31.7449 47.0137 33.4514 47.0137 35.553C47.0137 37.6546 48.7227 39.3453 50.8273 39.3453Z" fill="white"/>
<path d="M67.79 39.3771C69.8945 39.3771 71.6035 37.6705 71.6035 35.5689C71.6035 33.4674 69.8945 31.7766 67.79 31.7766C65.6854 31.7766 63.9922 33.4832 63.9922 35.5689C63.9922 37.6547 65.7012 39.3771 67.79 39.3771Z" fill="white"/>
<path d="M85.1173 63.9007C93.0926 57.2641 98.1721 47.2777 98.1721 36.1377C98.1721 16.2122 81.9209 0 61.9668 0C42.0127 0 25.7773 16.2122 25.7773 36.1377C25.7773 47.1354 30.7302 57.0113 38.5315 63.6479C15.9664 72.7494 0 94.8397 0 120.596C0 154.458 27.5971 182 61.5079 182C95.4188 182 123 154.458 123 120.596C123 95.0768 107.334 73.1603 85.1173 63.9007ZM30.3821 36.1377C30.3821 18.7404 44.5446 4.59819 61.9668 4.59819C79.389 4.59819 93.5515 18.7404 93.5515 36.1377C93.5515 46.851 88.1555 56.316 79.9587 62.0203C78.1389 63.2844 76.1926 64.3747 74.1355 65.228C70.3852 66.7923 66.2709 67.6772 61.9668 67.6772C57.6627 67.6772 53.3111 66.7449 49.4817 65.1016C47.4404 64.2167 45.5098 63.1106 43.7059 61.8307C35.6673 56.1106 30.3821 46.7404 30.3821 36.1535V36.1377ZM68.6604 71.6433L64.9575 81.219L74.1513 127.549L63.3593 140.521L52.4882 127.596L60.1629 80.7291L56.2385 71.8172C58.1058 72.1174 60.0205 72.2754 61.9826 72.2754C64.2771 72.2754 66.5083 72.0542 68.692 71.6433H68.6604ZM42.978 66.8871C45.9371 68.7043 49.1652 70.1264 52.599 71.0429L57.0455 81.1242L49.2918 128.465L63.3593 145.183L77.3636 128.354L68.0749 81.5192L72.5847 70.6795C75.4172 69.8104 78.0915 68.5937 80.5758 67.1084C92.6021 71.4063 102.777 79.623 109.518 90.2257C102.998 91.6637 97.1277 98.4898 94.3269 102.282C93.9155 102.835 93.5515 103.341 93.2825 103.752L92.7129 103.056L85.2439 93.9865L83.8514 95.14L93.4566 106.786L94.1212 105.727C94.1212 105.727 94.1845 105.648 94.2161 105.585C98.1563 112.648 101.907 123.029 99.3273 134.691L99.2956 134.849L99.3273 135.023C99.3273 135.023 99.3273 135.086 99.3273 135.133C99.3273 135.165 99.3273 135.196 99.3273 135.244C99.3273 135.275 99.3273 135.323 99.3273 135.354C99.3273 135.418 99.3589 135.497 99.3748 135.576V135.655C99.6596 137.108 100.609 140.727 102.951 143.144C79.0726 160.526 44.592 159.151 16.7101 139.731C16.8367 139.605 16.9475 139.479 17.0583 139.336C17.2798 139.084 17.5014 138.831 17.7229 138.578C17.8653 138.404 17.9919 138.23 18.1343 138.041C18.3084 137.804 18.4666 137.567 18.6249 137.33C18.7356 137.156 18.8622 136.982 18.9572 136.808C19.1629 136.476 19.3528 136.144 19.5426 135.813C19.6218 135.655 19.7009 135.497 19.78 135.354C19.9224 135.07 20.0648 134.786 20.1914 134.517C20.2547 134.375 20.3022 134.248 20.3655 134.122C20.4604 133.885 20.5554 133.664 20.6345 133.458C20.6662 133.363 20.7136 133.269 20.7453 133.174C20.8402 132.889 20.9352 132.637 20.9826 132.447C21.0459 132.194 21.0776 132.02 21.0618 131.926L20.9668 131.436C20.0174 120.154 23.8626 110.799 27.7078 104.431C27.7395 104.479 27.787 104.542 27.8028 104.605L28.4199 105.758L37.7877 94.7607L36.411 93.5914L29.2586 101.998L28.7522 102.598C28.499 102.156 28.1667 101.587 27.8028 100.971C25.2235 96.6727 20.1123 88.9774 15.5233 87.0497C22.3118 77.8059 31.8537 70.6953 42.8989 66.8713H42.9305L42.978 66.8871ZM7.86453 139.479C5.77576 133.569 4.62061 127.217 4.62061 120.596C4.62061 108.729 8.29178 97.6998 14.5423 88.5824C14.7796 88.6614 15.0328 88.772 15.286 88.8984H15.3018C15.555 89.0248 15.8082 89.167 16.0614 89.3409H16.093C16.3462 89.5147 16.5994 89.6885 16.8684 89.8939C16.8842 89.8939 16.9 89.9255 16.9159 89.9255C17.169 90.1309 17.4381 90.3521 17.6912 90.5892C17.7071 90.5892 17.7229 90.6208 17.7545 90.6366C18.0077 90.8736 18.2767 91.1264 18.5299 91.3792C18.5457 91.3792 18.5774 91.4266 18.5932 91.4424C18.8464 91.6953 19.1154 91.9797 19.3686 92.2483C19.4002 92.2799 19.4161 92.3115 19.4477 92.3431C19.7009 92.6275 19.9541 92.912 20.2073 93.2122C20.2389 93.2438 20.2706 93.2912 20.3022 93.3228C20.5554 93.623 20.7927 93.9233 21.0459 94.2235C21.0776 94.2709 21.125 94.3183 21.1567 94.3657C21.3941 94.6659 21.6314 94.9661 21.8688 95.2822C21.9162 95.3454 21.9637 95.4086 22.0112 95.456C22.2327 95.7562 22.4543 96.0564 22.6758 96.3567C22.7391 96.4357 22.7866 96.5147 22.8499 96.5937C23.0556 96.8781 23.2613 97.1625 23.4512 97.447C23.5145 97.5418 23.5936 97.6524 23.6569 97.7472C23.8468 98.0158 24.0208 98.2844 24.1949 98.5372C24.274 98.6479 24.3531 98.7743 24.4164 98.8849C24.5747 99.1377 24.7487 99.3905 24.907 99.6275C24.9861 99.754 25.0652 99.8804 25.1602 100.023C25.3026 100.244 25.445 100.465 25.5716 100.686C25.6824 100.876 25.7931 101.05 25.9197 101.239C26.0147 101.397 26.1096 101.555 26.2046 101.698C26.4103 102.029 26.6002 102.345 26.7742 102.646C22.5492 109.361 18.0868 119.664 19.3211 132.147C18.6723 133.995 16.0772 139.621 12.2161 140.442C11.8838 140.506 11.5515 140.537 11.2192 140.537H11.0135C10.7287 140.537 10.4438 140.49 10.1432 140.427C10.0957 140.427 10.0482 140.395 10.0008 140.395C9.68429 140.316 9.35199 140.205 9.03551 140.079C9.01968 140.079 8.98804 140.063 8.97221 140.047C8.60826 139.889 8.24431 139.7 7.88035 139.479H7.86453ZM61.5079 177.386C37.7086 177.386 17.2798 162.707 8.81397 141.944C9.621 142.228 10.4122 142.386 11.2034 142.386C12.2161 142.386 13.213 142.149 14.1941 141.675C14.6847 141.438 15.1436 141.138 15.6025 140.806C30.7935 151.488 47.9626 156.876 64.3721 156.876C78.8668 156.876 92.8078 152.673 104.296 144.187C104.533 144.345 104.771 144.503 105.024 144.646C105.293 144.788 105.562 144.93 105.863 145.041C106.685 145.357 107.556 145.515 108.458 145.515C109.914 145.515 111.48 145.12 113.157 144.33C104.138 163.828 84.3736 177.386 61.4921 177.386H61.5079ZM106.496 143.366C102.54 141.88 101.337 135.939 101.147 134.912C103.853 122.381 99.6121 111.273 95.3713 103.957C97.9189 100.433 104.106 92.8488 110.562 91.8849C115.531 100.323 118.395 110.12 118.395 120.596C118.395 128.038 116.939 135.133 114.328 141.659C111.259 143.603 108.632 144.172 106.511 143.366H106.496Z" fill="white"/>
</g>
<path d="M149.952 118V71.92H160.512V118H149.952ZM155.232 63.472C153.44 63.472 151.936 62.864 150.72 61.648C149.568 60.432 148.992 58.928 148.992 57.136C148.992 55.344 149.568 53.84 150.72 52.624C151.936 51.408 153.44 50.8 155.232 50.8C157.088 50.8 158.592 51.408 159.744 52.624C160.896 53.84 161.472 55.344 161.472 57.136C161.472 58.928 160.896 60.432 159.744 61.648C158.592 62.864 157.088 63.472 155.232 63.472ZM200.1 118V91.408C200.1 88.336 199.108 85.808 197.124 83.824C195.204 81.84 192.708 80.848 189.636 80.848C187.588 80.848 185.764 81.296 184.164 82.192C182.564 83.088 181.316 84.336 180.42 85.936C179.524 87.536 179.076 89.36 179.076 91.408L174.948 89.104C174.948 85.584 175.716 82.48 177.252 79.792C178.788 77.04 180.9 74.896 183.588 73.36C186.34 71.76 189.412 70.96 192.804 70.96C196.26 70.96 199.332 71.856 202.02 73.648C204.708 75.376 206.82 77.648 208.356 80.464C209.892 83.216 210.66 86.096 210.66 89.104V118H200.1ZM168.516 118V71.92H179.076V118H168.516ZM223.997 118V52.72H234.557V118H223.997ZM212.956 81.52V71.92H245.597V81.52H212.956ZM269.525 118.96C264.917 118.96 260.757 117.936 257.045 115.888C253.397 113.776 250.485 110.896 248.309 107.248C246.197 103.6 245.141 99.504 245.141 94.96C245.141 90.416 246.197 86.352 248.309 82.768C250.421 79.12 253.269 76.24 256.853 74.128C260.501 72.016 264.533 70.96 268.949 70.96C273.237 70.96 277.013 71.952 280.277 73.936C283.605 75.92 286.197 78.64 288.053 82.096C289.973 85.552 290.933 89.488 290.933 93.904C290.933 94.672 290.869 95.472 290.741 96.304C290.677 97.072 290.549 97.936 290.357 98.896H252.533V90.256H284.885L280.949 93.712C280.821 90.896 280.277 88.528 279.317 86.608C278.357 84.688 276.981 83.216 275.189 82.192C273.461 81.168 271.317 80.656 268.757 80.656C266.069 80.656 263.733 81.232 261.749 82.384C259.765 83.536 258.229 85.168 257.141 87.28C256.053 89.328 255.509 91.792 255.509 94.672C255.509 97.552 256.085 100.08 257.237 102.256C258.389 104.432 260.021 106.128 262.133 107.344C264.245 108.496 266.677 109.072 269.429 109.072C271.797 109.072 273.973 108.656 275.957 107.824C278.005 106.992 279.733 105.776 281.141 104.176L287.861 110.992C285.621 113.616 282.901 115.6 279.701 116.944C276.501 118.288 273.109 118.96 269.525 118.96ZM295.558 118V71.92H306.118V118H295.558ZM306.118 92.368L302.47 90.544C302.47 84.72 303.75 80.016 306.311 76.432C308.935 72.784 312.871 70.96 318.118 70.96C320.423 70.96 322.503 71.376 324.359 72.208C326.215 73.04 327.943 74.384 329.543 76.24L322.631 83.344C321.799 82.448 320.871 81.808 319.847 81.424C318.823 81.04 317.639 80.848 316.295 80.848C313.351 80.848 310.918 81.776 308.998 83.632C307.078 85.488 306.118 88.4 306.118 92.368ZM362.396 118V91.408C362.396 88.336 361.404 85.808 359.42 83.824C357.5 81.84 355.004 80.848 351.932 80.848C349.884 80.848 348.06 81.296 346.46 82.192C344.86 83.088 343.612 84.336 342.716 85.936C341.82 87.536 341.372 89.36 341.372 91.408L337.244 89.104C337.244 85.584 338.012 82.48 339.548 79.792C341.084 77.04 343.196 74.896 345.884 73.36C348.636 71.76 351.708 70.96 355.1 70.96C358.556 70.96 361.628 71.856 364.316 73.648C367.004 75.376 369.116 77.648 370.652 80.464C372.188 83.216 372.956 86.096 372.956 89.104V118H362.396ZM330.812 118V71.92H341.372V118H330.812ZM399.143 118.96C394.983 118.96 391.207 117.904 387.815 115.792C384.487 113.68 381.831 110.832 379.847 107.248C377.927 103.6 376.967 99.536 376.967 95.056C376.967 90.512 377.927 86.448 379.847 82.864C381.831 79.216 384.487 76.336 387.815 74.224C391.207 72.048 394.983 70.96 399.143 70.96C402.663 70.96 405.767 71.728 408.455 73.264C411.207 74.736 413.383 76.784 414.983 79.408C416.583 82.032 417.383 85.008 417.383 88.336V101.584C417.383 104.912 416.583 107.888 414.983 110.512C413.447 113.136 411.303 115.216 408.551 116.752C405.799 118.224 402.663 118.96 399.143 118.96ZM400.871 108.976C404.775 108.976 407.911 107.664 410.279 105.04C412.711 102.416 413.927 99.056 413.927 94.96C413.927 92.208 413.383 89.776 412.295 87.664C411.207 85.552 409.671 83.92 407.687 82.768C405.767 81.552 403.495 80.944 400.871 80.944C398.311 80.944 396.039 81.552 394.055 82.768C392.135 83.92 390.599 85.552 389.447 87.664C388.359 89.776 387.815 92.208 387.815 94.96C387.815 97.712 388.359 100.144 389.447 102.256C390.599 104.368 392.135 106.032 394.055 107.248C396.039 108.4 398.311 108.976 400.871 108.976ZM413.255 118V105.616L415.079 94.384L413.255 83.248V71.92H423.815V118H413.255ZM431.695 118V48.88H442.255V118H431.695Z" fill="white"/>
<path d="M153.472 178V135.632H156.736V178H153.472ZM145.792 151.12V148.24H164.416V151.12H145.792ZM183.367 178.64C180.465 178.64 177.841 177.957 175.495 176.592C173.191 175.184 171.356 173.307 169.991 170.96C168.625 168.571 167.943 165.925 167.943 163.024C167.943 160.123 168.625 157.52 169.991 155.216C171.356 152.869 173.191 151.013 175.495 149.648C177.841 148.283 180.465 147.6 183.367 147.6C186.225 147.6 188.807 148.283 191.111 149.648C193.457 151.013 195.313 152.869 196.679 155.216C198.044 157.52 198.727 160.123 198.727 163.024C198.727 165.968 198.044 168.613 196.679 170.96C195.313 173.307 193.457 175.184 191.111 176.592C188.807 177.957 186.225 178.64 183.367 178.64ZM183.367 175.568C185.628 175.568 187.655 175.013 189.447 173.904C191.281 172.795 192.711 171.301 193.735 169.424C194.801 167.504 195.335 165.349 195.335 162.96C195.335 160.613 194.801 158.523 193.735 156.688C192.711 154.853 191.281 153.403 189.447 152.336C187.655 151.227 185.628 150.672 183.367 150.672C181.063 150.672 178.993 151.227 177.159 152.336C175.367 153.403 173.937 154.853 172.871 156.688C171.804 158.523 171.271 160.635 171.271 163.024C171.271 165.413 171.804 167.547 172.871 169.424C173.937 171.301 175.367 172.795 177.159 173.904C178.993 175.013 181.063 175.568 183.367 175.568ZM219.929 178.64C217.028 178.64 214.404 177.957 212.057 176.592C209.753 175.184 207.918 173.307 206.553 170.96C205.188 168.571 204.505 165.925 204.505 163.024C204.505 160.123 205.188 157.52 206.553 155.216C207.918 152.869 209.753 151.013 212.057 149.648C214.404 148.283 217.028 147.6 219.929 147.6C222.788 147.6 225.369 148.283 227.673 149.648C230.02 151.013 231.876 152.869 233.241 155.216C234.606 157.52 235.289 160.123 235.289 163.024C235.289 165.968 234.606 168.613 233.241 170.96C231.876 173.307 230.02 175.184 227.673 176.592C225.369 177.957 222.788 178.64 219.929 178.64ZM219.929 175.568C222.19 175.568 224.217 175.013 226.009 173.904C227.844 172.795 229.273 171.301 230.297 169.424C231.364 167.504 231.897 165.349 231.897 162.96C231.897 160.613 231.364 158.523 230.297 156.688C229.273 154.853 227.844 153.403 226.009 152.336C224.217 151.227 222.19 150.672 219.929 150.672C217.625 150.672 215.556 151.227 213.721 152.336C211.929 153.403 210.5 154.853 209.433 156.688C208.366 158.523 207.833 160.635 207.833 163.024C207.833 165.413 208.366 167.547 209.433 169.424C210.5 171.301 211.929 172.795 213.721 173.904C215.556 175.013 217.625 175.568 219.929 175.568ZM242.988 178V133.072H246.252V178H242.988ZM264.759 178.64C263.137 178.64 261.601 178.427 260.151 178C258.743 177.531 257.441 176.891 256.247 176.08C255.095 175.269 254.071 174.331 253.174 173.264L255.351 171.088C256.545 172.667 257.932 173.84 259.51 174.608C261.132 175.333 262.903 175.696 264.823 175.696C267.041 175.696 268.791 175.248 270.071 174.352C271.351 173.456 271.991 172.197 271.991 170.576C271.991 169.125 271.585 167.995 270.775 167.184C269.964 166.331 268.897 165.669 267.575 165.2C266.295 164.731 264.929 164.283 263.479 163.856C262.071 163.429 260.705 162.917 259.383 162.32C258.103 161.723 257.057 160.891 256.247 159.824C255.436 158.757 255.031 157.328 255.031 155.536C255.031 153.957 255.436 152.571 256.247 151.376C257.057 150.181 258.188 149.264 259.639 148.624C261.132 147.941 262.881 147.6 264.887 147.6C267.105 147.6 269.089 147.984 270.839 148.752C272.631 149.52 274.06 150.651 275.127 152.144L273.015 154.32C272.161 153.125 271.009 152.208 269.559 151.568C268.108 150.885 266.487 150.544 264.695 150.544C262.561 150.544 260.94 150.992 259.831 151.888C258.721 152.784 258.167 153.936 258.167 155.344C258.167 156.667 258.572 157.712 259.383 158.48C260.193 159.248 261.239 159.845 262.519 160.272C263.841 160.699 265.207 161.125 266.615 161.552C268.065 161.936 269.431 162.448 270.711 163.088C272.033 163.728 273.1 164.603 273.911 165.712C274.721 166.821 275.127 168.336 275.127 170.256C275.127 172.816 274.188 174.864 272.311 176.4C270.433 177.893 267.916 178.64 264.759 178.64Z" fill="white"/>
<defs>
<clipPath id="clip0_917_460">
<rect width="123" height="182" fill="white"/>
</clipPath>
</defs>
</svg>
